<svg width="6" height="10" viewBox="0 0 6 10" fill="none" xmlns="http://www.w3.org/2000/svg">
<path d="M5.82411 7.14975L3.44099 9.64975C3.30786 9.7728 3.15411 9.83334 3.00036 9.83334C2.84661 9.83334 2.69324 9.77231 2.57605 9.65024L0.192927 7.15024C0.0045719 6.97202 -0.0468106 6.70248 0.0460769 6.47006C0.138964 6.23764 0.357927 6.08334 0.600364 6.08334H5.38349C5.62611 6.08334 5.84511 6.23532 5.93811 6.46909C6.03111 6.70286 5.99661 6.97202 5.82411 7.14975Z" fill="#8A9AA7"/>
<g clip-path="url(#clip0_101_855)">
<path d="M0.176375 2.85025L2.5595 0.35025C2.69262 0.227203 2.84637 0.166657 3.00012 0.166657C3.15387 0.166657 3.30725 0.227692 3.42444 0.349762L5.80756 2.84976C5.99592 3.02798 6.0473 3.29752 5.95441 3.52994C5.86152 3.76236 5.64256 3.91666 5.40012 3.91666L0.616999 3.91666C0.374374 3.91666 0.155375 3.76468 0.0623746 3.53091C-0.0306253 3.29714 0.00387438 3.02798 0.176375 2.85025Z" fill="#8A9AA7"/>
</g>
<defs>
<clipPath id="clip0_101_855">
<rect width="6" height="4" fill="white" transform="translate(6 4) rotate(-180)"/>
</clipPath>
</defs>
</svg>
